<?xml version="1.0" encoding="UTF-8"?>
<!DOCTYPE svg PUBLIC "-//W3C//DTD SVG 1.1//EN" "http://www.w3.org/Graphics/SVG/1.1/DTD/svg11.dtd">
<svg xmlns="http://www.w3.org/2000/svg" version="1.1" width="500px" height="500px" style="shape-rendering:geometricPrecision; text-rendering:geometricPrecision; image-rendering:optimizeQuality; fill-rule:evenodd; clip-rule:evenodd" xmlns:xlink="http://www.w3.org/1999/xlink">
<g><path style="opacity:1" fill="#f8fdfe" d="M -0.5,-0.5 C 166.167,-0.5 332.833,-0.5 499.5,-0.5C 499.5,0.5 499.5,1.5 499.5,2.5C 333.167,2.5 166.833,2.5 0.5,2.5C 0.5,168.167 0.5,333.833 0.5,499.5C 0.166667,499.5 -0.166667,499.5 -0.5,499.5C -0.5,332.833 -0.5,166.167 -0.5,-0.5 Z"/></g>
<g><path style="opacity:1" fill="#10c0df" d="M 499.5,2.5 C 499.5,168.167 499.5,333.833 499.5,499.5C 333.167,499.5 166.833,499.5 0.5,499.5C 0.5,333.833 0.5,168.167 0.5,2.5C 166.833,2.5 333.167,2.5 499.5,2.5 Z"/></g>
<g><path style="opacity:1" fill="#fefefe" d="M 29.5,79.5 C 42.1711,79.3334 54.8377,79.5001 67.5,80C 69.286,80.7845 70.786,81.9512 72,83.5C 74.2466,101.139 76.2466,118.806 78,136.5C 80.9864,128.211 83.9864,119.878 87,111.5C 87.8333,110.667 88.6667,109.833 89.5,109C 97.5,108.333 105.5,108.333 113.5,109C 114.333,109.833 115.167,110.667 116,111.5C 119.397,119.692 122.397,128.025 125,136.5C 126.842,118.431 129.175,100.431 132,82.5C 132.833,81.6667 133.667,80.8333 134.5,80C 148.261,79.0367 161.928,79.37 175.5,81C 176.059,81.7247 176.392,82.5581 176.5,83.5C 170.801,124.648 164.468,165.648 157.5,206.5C 156.335,207.584 155.002,208.417 153.5,209C 142.069,209.955 130.736,209.622 119.5,208C 113.097,194.692 107.097,181.192 101.5,167.5C 96.062,180.044 90.8954,192.711 86,205.5C 85.1667,206.333 84.3333,207.167 83.5,208C 71.9303,209.623 60.2636,209.957 48.5,209C 46.6217,207.457 45.1217,205.624 44,203.5C 38.5853,165.85 33.252,128.183 28,90.5C 27.013,86.5252 27.513,82.8585 29.5,79.5 Z"/></g>
<g><path style="opacity:1" fill="#fefefe" d="M 211.5,79.5 C 244.92,79.0141 278.254,79.5141 311.5,81C 312.126,81.7504 312.626,82.5838 313,83.5C 313.667,93.1667 313.667,102.833 313,112.5C 312.167,113.333 311.333,114.167 310.5,115C 291.17,115.5 271.836,115.667 252.5,115.5C 252.5,119.5 252.5,123.5 252.5,127.5C 270.17,127.333 287.836,127.5 305.5,128C 306.416,128.374 307.25,128.874 308,129.5C 308.667,139.5 308.667,149.5 308,159.5C 307.5,160 307,160.5 306.5,161C 288.503,161.5 270.503,161.667 252.5,161.5C 252.5,165.5 252.5,169.5 252.5,173.5C 272.169,173.333 291.836,173.5 311.5,174C 312.667,174.5 313.5,175.333 314,176.5C 314.667,186.5 314.667,196.5 314,206.5C 313.5,207.667 312.667,208.5 311.5,209C 277.833,209.667 244.167,209.667 210.5,209C 210,208.5 209.5,208 209,207.5C 208.333,165.833 208.333,124.167 209,82.5C 209.698,81.3094 210.531,80.3094 211.5,79.5 Z"/></g>
<g><path style="opacity:1" fill="#fdfefe" d="M 421.5,133.5 C 421.56,134.043 421.893,134.376 422.5,134.5C 423.499,117.513 423.833,100.513 423.5,83.5C 423.574,81.5891 424.574,80.4224 426.5,80C 438.833,79.3333 451.167,79.3333 463.5,80C 464.333,80.8333 465.167,81.6667 466,82.5C 466.667,123.833 466.667,165.167 466,206.5C 465.167,207.333 464.333,208.167 463.5,209C 451.404,209.958 439.404,209.625 427.5,208C 415.962,191.759 404.795,175.259 394,158.5C 393.667,174.5 393.333,190.5 393,206.5C 392.167,207.333 391.333,208.167 390.5,209C 377.833,209.667 365.167,209.667 352.5,209C 351.667,208.167 350.833,207.333 350,206.5C 349.333,165.167 349.333,123.833 350,82.5C 350.833,81.6667 351.667,80.8333 352.5,80C 363.833,79.3333 375.167,79.3333 386.5,80C 387.5,80.5 388.5,81 389.5,81.5C 400.679,98.5268 411.346,115.86 421.5,133.5 Z"/></g>
<g><path style="opacity:1" fill="#90e2f0" d="M 423.5,83.5 C 423.833,100.513 423.499,117.513 422.5,134.5C 421.893,134.376 421.56,134.043 421.5,133.5C 422.167,116.833 422.833,100.167 423.5,83.5 Z"/></g>
<g><path style="opacity:1" fill="#fefefe" d="M 162.5,389.5 C 162.667,371.83 162.5,354.164 162,336.5C 161.283,337.044 160.783,337.711 160.5,338.5C 156.45,346.054 151.783,353.22 146.5,360C 139.5,362 132.5,362 125.5,360C 120.542,352.585 115.709,345.085 111,337.5C 110.82,355.21 110.32,372.877 109.5,390.5C 108.975,391.192 108.308,391.692 107.5,392C 94.8333,392.667 82.1667,392.667 69.5,392C 69,391.5 68.5,391 68,390.5C 67.3333,348.833 67.3333,307.167 68,265.5C 68.5,264.333 69.3333,263.5 70.5,263C 81.5,262.333 92.5,262.333 103.5,263C 104.833,263.667 106.167,264.333 107.5,265C 117.003,280.655 126.67,296.155 136.5,311.5C 145.585,296.999 154.418,282.333 163,267.5C 164.167,266.333 165.333,265.167 166.5,264C 178.07,262.377 189.736,262.043 201.5,263C 202.931,263.465 204.097,264.299 205,265.5C 205.667,306.833 205.667,348.167 205,389.5C 204.167,390.333 203.333,391.167 202.5,392C 189.833,392.667 177.167,392.667 164.5,392C 163.619,391.292 162.953,390.458 162.5,389.5 Z"/></g>
<g><path style="opacity:1" fill="#fefefe" d="M 343.5,298.5 C 324.5,298.5 305.5,298.5 286.5,298.5C 286.183,302.702 286.517,306.702 287.5,310.5C 305.17,310.333 322.836,310.5 340.5,311C 341.333,311.833 342.167,312.667 343,313.5C 343.667,322.833 343.667,332.167 343,341.5C 341.961,342.71 340.794,343.71 339.5,344.5C 321.833,344.5 304.167,344.5 286.5,344.5C 286.5,348.5 286.5,352.5 286.5,356.5C 305.833,356.5 325.167,356.5 344.5,356.5C 346.017,356.511 347.184,357.177 348,358.5C 348.667,369.167 348.667,379.833 348,390.5C 347.25,391.126 346.416,391.626 345.5,392C 312.167,392.667 278.833,392.667 245.5,392C 244.333,391.5 243.5,390.667 243,389.5C 242.333,348.167 242.333,306.833 243,265.5C 243.833,264.667 244.667,263.833 245.5,263C 278.5,262.333 311.5,262.333 344.5,263C 345.333,263.833 346.167,264.667 347,265.5C 347.667,275.5 347.667,285.5 347,295.5C 346.578,297.426 345.411,298.426 343.5,298.5 Z"/></g>
<g><path style="opacity:1" fill="#fefefe" d="M 387.5,262.5 C 401.171,262.333 414.837,262.5 428.5,263C 429.667,263.5 430.5,264.333 431,265.5C 431.667,307.167 431.667,348.833 431,390.5C 430.25,391.126 429.416,391.626 428.5,392C 414.5,392.667 400.5,392.667 386.5,392C 386,391.5 385.5,391 385,390.5C 384.333,348.833 384.333,307.167 385,265.5C 385.698,264.309 386.531,263.309 387.5,262.5 Z"/></g>
<g><path style="opacity:1" fill="#77dced" d="M 343.5,298.5 C 325.007,299.497 306.341,299.83 287.5,299.5C 287.5,303.167 287.5,306.833 287.5,310.5C 286.517,306.702 286.183,302.702 286.5,298.5C 305.5,298.5 324.5,298.5 343.5,298.5 Z"/></g>
<g><path style="opacity:1" fill="#c6f0f7" d="M 162.5,389.5 C 161.833,372.5 161.167,355.5 160.5,338.5C 160.783,337.711 161.283,337.044 162,336.5C 162.5,354.164 162.667,371.83 162.5,389.5 Z"/></g>
<g><path style="opacity:1" fill="#40cde5" d="M 339.5,344.5 C 322.341,345.497 305.008,345.83 287.5,345.5C 287.5,348.833 287.5,352.167 287.5,355.5C 306.674,355.17 325.674,355.503 344.5,356.5C 325.167,356.5 305.833,356.5 286.5,356.5C 286.5,352.5 286.5,348.5 286.5,344.5C 304.167,344.5 321.833,344.5 339.5,344.5 Z"/></g>
</svg>
